<!-- Generated by IcoMoon.io -->
<svg version="1.1" xmlns="http://www.w3.org/2000/svg" width="32" height="32" viewBox="0 0 32 32">
<title>untitled95</title>
<path d="M5.714 11.429h16q1.714 0 2.536 1.536t0.714 4.089q-0.036 0.857-0.455 1.563t-1.018 1.098-1.196 0.598-1.098 0.205q-1.25 0-2.277-0.232t-1.67-0.563-1.188-0.652-1.134-0.554-1.214-0.232q-0.75 0-1.518 0.348t-1.393 0.768-1.83 0.768-2.741 0.348q-0.5 0-1.098-0.205t-1.205-0.598-1.027-1.098-0.455-1.563q-0.089-2.571 0.732-4.098t2.536-1.527zM13.714 29.714q2.786 0 5.321-1.089t4.375-2.92 2.92-4.375 1.080-5.33q0-2.107-0.589-4.018l3.661 2.911 1.518-3.464-5.589-0.607q-0.018-0.036-0.036-0.089t-0.036-0.098-0.036-0.080l5.393-2.232-2.268-3.089-3.429 4.696q-1.696-3.446-5-5.545t-7.286-2.098q-3.732 0-6.884 1.839t-4.991 4.991-1.839 6.884 1.839 6.884 4.991 4.991 6.884 1.839zM5.5 12.321l-0.929 2.536 2.232-0.054q-0.5 0.589-0.5 1.5 0 0.786 0.545 1.384t1.152 0.598q0.625 0 1.116-0.589t0.491-1.393q0-0.446-0.125-0.768l2.339 0.5 0.446-1.089zM21.929 12.321l-6.768 2.625 0.446 1.089 2.339-0.5q-0.125 0.321-0.125 0.768 0 0.804 0.491 1.393t1.116 0.589q0.607 0 1.152-0.598t0.545-1.384q0-0.911-0.5-1.5l2.232 0.054z"></path>
</svg>
